# xmcd CD database file
#
# Track frame offsets:
#	150
#	18001
#	41403
#	61535
#	79466
#	99150
#	117039
#	135261
#	157406
#	175122
#	194266
#	211918
#	229327
#	249196
#	264309
#	284017
#	302408
#	319377
#	337850
#
# Disc length: 4785 seconds
#
# Revision: 0
# Processed by: cddbd v1.5.2PL0 Copyright (c) Steve Scherf et al.
# Submitted via: CDex 1.51
#
DISCID=f512af13
DTITLE=Taylor Swift - Fearless
DYEAR=2009
DGENRE=Country
TTITLE0=Jump Then Fall
TTITLE1=Untouchable
TTITLE2=Forever and Always (Piano Version)
TTITLE3=Come In With the Rain
TTITLE4=SuperStar
TTITLE5=The Other Side of the Door
TTITLE6=Fearless
TTITLE7=Fifteen
TTITLE8=Love Story
TTITLE9=Hey Stephen
TTITLE10=White Horse
TTITLE11=You Belong With Me
TTITLE12=Breathe (feat. Colbie Caillat)
TTITLE13=Tell Me Why
TTITLE14=You're Not Sorry
TTITLE15=The Way I Loved You
TTITLE16=Forever and Always
TTITLE17=The Best Day
TTITLE18=Change
EXTD=YEAR: 2009
EXTT0=
EXTT1=
EXTT2=
EXTT3=
EXTT4=
EXTT5=
EXTT6=
EXTT7=
EXTT8=
EXTT9=
EXTT10=
EXTT11=
EXTT12=
EXTT13=
EXTT14=
EXTT15=
EXTT16=
EXTT17=
EXTT18=
PLAYORDER=
